<svg width="900" height="180" viewBox="0 0 900 180" xmlns="http://www.w3.org/2000/svg">
  <rect width="900" height="180" fill="#0d1117"/>

  <!-- Top accent bar -->
  <rect width="900" height="3" fill="#58a6ff"/>

  <!-- Grid lines horizontal -->
  <line x1="0" y1="45" x2="900" y2="45" stroke="#58a6ff" stroke-width="0.4" opacity="0.12"/>
  <line x1="0" y1="90" x2="900" y2="90" stroke="#58a6ff" stroke-width="0.4" opacity="0.12"/>
  <line x1="0" y1="135" x2="900" y2="135" stroke="#58a6ff" stroke-width="0.4" opacity="0.12"/>

  <!-- Grid lines vertical -->
  <line x1="150" y1="0" x2="150" y2="180" stroke="#58a6ff" stroke-width="0.4" opacity="0.12"/>
  <line x1="300" y1="0" x2="300" y2="180" stroke="#58a6ff" stroke-width="0.4" opacity="0.12"/>
  <line x1="450" y1="0" x2="450" y2="180" stroke="#58a6ff" stroke-width="0.4" opacity="0.12"/>
  <line x1="600" y1="0" x2="600" y2="180" stroke="#58a6ff" stroke-width="0.4" opacity="0.12"/>
  <line x1="750" y1="0" x2="750" y2="180" stroke="#58a6ff" stroke-width="0.4" opacity="0.12"/>

  <!-- Corner brackets -->
  <path d="M18 18 L18 8 L28 8" stroke="#58a6ff" stroke-width="1.5" fill="none" opacity="0.6"/>
  <path d="M882 162 L882 172 L872 172" stroke="#58a6ff" stroke-width="1.5" fill="none" opacity="0.6"/>
  <path d="M882 18 L882 8 L872 8" stroke="#58a6ff" stroke-width="1.5" fill="none" opacity="0.3"/>
  <path d="M18 162 L18 172 L28 172" stroke="#58a6ff" stroke-width="1.5" fill="none" opacity="0.3"/>

  <!-- Dot matrix right side -->
  <g opacity="0.22" fill="#58a6ff">
    <circle cx="710" cy="35" r="2.2"/><circle cx="732" cy="35" r="2.2"/><circle cx="754" cy="35" r="2.2"/><circle cx="776" cy="35" r="2.2"/><circle cx="798" cy="35" r="2.2"/><circle cx="820" cy="35" r="2.2"/>
    <circle cx="710" cy="57" r="2.2"/><circle cx="732" cy="57" r="2.2"/><circle cx="754" cy="57" r="2.2"/><circle cx="776" cy="57" r="2.2"/><circle cx="798" cy="57" r="2.2"/><circle cx="820" cy="57" r="2.2" fill="#d2a8ff"/>
    <circle cx="710" cy="79" r="2.2"/><circle cx="732" cy="79" r="2.2" fill="#3fb950"/><circle cx="754" cy="79" r="2.2"/><circle cx="776" cy="79" r="2.2"/><circle cx="798" cy="79" r="2.2"/><circle cx="820" cy="79" r="2.2"/>
    <circle cx="710" cy="101" r="2.2" fill="#d2a8ff"/><circle cx="732" cy="101" r="2.2"/><circle cx="754" cy="101" r="2.2"/><circle cx="776" cy="101" r="2.2" fill="#e3b341"/><circle cx="798" cy="101" r="2.2"/><circle cx="820" cy="101" r="2.2"/>
    <circle cx="710" cy="123" r="2.2"/><circle cx="732" cy="123" r="2.2"/><circle cx="754" cy="123" r="2.2" fill="#3fb950"/><circle cx="776" cy="123" r="2.2"/><circle cx="798" cy="123" r="2.2"/><circle cx="820" cy="123" r="2.2"/>
    <circle cx="710" cy="145" r="2.2"/><circle cx="732" cy="145" r="2.2"/><circle cx="754" cy="145" r="2.2"/><circle cx="776" cy="145" r="2.2" fill="#d2a8ff"/><circle cx="798" cy="145" r="2.2"/><circle cx="820" cy="145" r="2.2"/>
  </g>

  <!-- Avatar circle -->
  <circle cx="90" cy="90" r="46" fill="#161b22" stroke="#30363d" stroke-width="1.5"/>
  <circle cx="90" cy="90" r="46" fill="none" stroke="#58a6ff" stroke-width="1" stroke-dasharray="6 4" opacity="0.5"/>
  <text x="90" y="97" text-anchor="middle" font-family="monospace" font-size="22" font-weight="700" fill="#e6edf3">PSS</text>

  <!-- Online dot -->
  <circle cx="126" cy="126" r="7" fill="#0d1117"/>
  <circle cx="126" cy="126" r="5" fill="#3fb950"/>

  <!-- Name -->
  <text x="160" y="72" font-family="'Segoe UI', system-ui, sans-serif" font-size="26" font-weight="700" fill="#e6edf3">Pratyaksh Santosh Singh</text>

  <!-- Subtitle -->
  <text x="162" y="98" font-family="'Segoe UI', system-ui, sans-serif" font-size="13" fill="#8b949e">IT&amp;M Student @ UTD  ·  Python  ·  AWS  ·  AI/ML</text>

  <!-- Badges -->
  <!-- Python -->
  <rect x="162" y="114" width="72" height="22" rx="11" fill="#0d2a0d" stroke="#238636" stroke-width="0.8"/>
  <circle cx="177" cy="125" r="4" fill="#3fb950"/>
  <text x="185" y="129" font-family="monospace" font-size="11" font-weight="500" fill="#3fb950">Python</text>

  <!-- JavaScript -->
  <rect x="242" y="114" width="90" height="22" rx="11" fill="#2a2200" stroke="#9e6a03" stroke-width="0.8"/>
  <circle cx="257" cy="125" r="4" fill="#e3b341"/>
  <text x="265" y="129" font-family="monospace" font-size="11" font-weight="500" fill="#e3b341">JavaScript</text>

  <!-- AWS -->
  <rect x="340" y="114" width="54" height="22" rx="11" fill="#0d1a2a" stroke="#1f6feb" stroke-width="0.8"/>
  <circle cx="355" cy="125" r="4" fill="#58a6ff"/>
  <text x="363" y="129" font-family="monospace" font-size="11" font-weight="500" fill="#58a6ff">AWS</text>

  <!-- AI/ML -->
  <rect x="402" y="114" width="54" height="22" rx="11" fill="#1a0d2a" stroke="#6e40c9" stroke-width="0.8"/>
  <circle cx="417" cy="125" r="4" fill="#d2a8ff"/>
  <text x="425" y="129" font-family="monospace" font-size="11" font-weight="500" fill="#d2a8ff">AI/ML</text>

  <!-- Bottom accent bar -->
  <rect y="177" width="900" height="3" fill="#58a6ff" opacity="0.3"/>
</svg>
